<svg width="19" height="19" viewBox="0 0 21 21" fill="none" xmlns="http://www.w3.org/2000/svg">
<path d="M14.4375 0C13.0988 0 11.9438 0.917603 11.235 2.30712C12.4163 3.72285 13.125 5.66292 13.125 7.89139C13.125 8.65168 13.0462 9.33333 12.8888 10.015C13.3875 10.3034 13.8862 10.5131 14.4375 10.5131C16.6162 10.5131 18.375 8.15356 18.375 5.26966C18.375 2.38577 16.6162 0.0262172 14.4375 0.0262172V0ZM6.5625 2.62172C4.38375 2.62172 2.625 4.98127 2.625 7.86517C2.625 10.7491 4.38375 13.1086 6.5625 13.1086C8.74125 13.1086 10.5 10.7491 10.5 7.86517C10.5 4.98127 8.74125 2.62172 6.5625 2.62172ZM19.0312 10.9064C17.9025 12.2434 16.3538 13.0562 14.595 13.1086C15.3038 14.1049 15.75 15.3109 15.75 16.6217V18.3521H21V14C21 12.6367 20.1863 11.4569 19.0312 10.8801V10.9064ZM1.96875 13.5281C0.81375 14.1049 0 15.2846 0 16.6479V21H13.125V16.6479C13.125 15.2846 12.3112 14.1049 11.1562 13.5281C9.975 14.9176 8.37375 15.7303 6.5625 15.7303C4.75125 15.7303 3.15 14.8914 1.96875 13.5281Z" fill="#002B5C"/>
</svg>
