<svg width="19" height="18" viewBox="0 0 117 110" fill="none" xmlns="http://www.w3.org/2000/svg">
<path d="M105.081 38.659C94.5733 38.659 90.2772 31.2278 95.5022 22.113C98.5211 16.8299 96.7214 10.0954 91.4383 7.07646L81.3946 1.32891C76.8081 -1.39972 70.8864 0.225846 68.1578 4.81227L67.5192 5.91534C62.2941 15.0301 53.7018 15.0301 48.4187 5.91534L47.7801 4.81227C45.1676 0.225846 39.2459 -1.39972 34.6595 1.32891L24.6158 7.07646C19.3327 10.0954 17.5329 16.8879 20.5518 22.171C25.8349 31.2278 21.5388 38.659 11.0306 38.659C4.99282 38.659 0 43.5937 0 49.6896V59.9075C0 65.9453 4.93476 70.9381 11.0306 70.9381C21.5388 70.9381 25.8349 78.3693 20.5518 87.4841C17.5329 92.7672 19.3327 99.5017 24.6158 102.521L34.6595 108.268C39.2459 110.997 45.1676 109.371 47.8962 104.785L48.5349 103.682C53.7599 94.5669 62.3522 94.5669 67.6353 103.682L68.2739 104.785C71.0025 109.371 76.9243 110.997 81.5107 108.268L91.5544 102.521C96.8375 99.5017 98.6372 92.7091 95.6183 87.4841C90.3352 78.3693 94.6314 70.9381 105.14 70.9381C111.177 70.9381 116.17 66.0033 116.17 59.9075V49.6896C116.112 43.6518 111.177 38.659 105.081 38.659ZM58.056 73.6667C47.664 73.6667 39.1878 65.1906 39.1878 54.7985C39.1878 44.4065 47.664 35.9303 58.056 35.9303C68.4481 35.9303 76.9243 44.4065 76.9243 54.7985C76.9243 65.1906 68.4481 73.6667 58.056 73.6667Z" fill="#FFA800"/>
</svg>
