<svg width="18" height="19" viewBox="0 0 23 26" fill="none" xmlns="http://www.w3.org/2000/svg">
<path d="M12.3623 18.0271H13.1098C13.8573 18.0271 14.4783 17.3021 14.4783 16.4271C14.4783 15.3396 14.1218 15.1271 13.5353 14.9021L12.3738 14.4646V18.0271H12.3623Z" fill="#FFA800"/>
<path d="M11.4655 0.500021C5.11754 0.525021 -0.0229229 6.13748 7.68805e-05 13.0375C0.0230767 19.9375 5.18653 25.5249 11.5345 25.4999C17.8825 25.4749 23.0229 19.8625 22.9999 12.9625C22.9769 6.06248 17.8135 0.487521 11.4655 0.500021ZM14.099 13.125C14.996 13.4625 16.2035 14.1875 16.2035 16.425C16.2035 18.35 14.812 19.9 13.11 19.9H12.3625V20.625C12.3625 21.1374 11.9715 21.5624 11.5 21.5624C11.0285 21.5624 10.6375 21.1374 10.6375 20.625V19.9H10.2235C8.33751 19.9 6.80802 18.175 6.80802 16.05C6.80802 15.5375 7.19902 15.1125 7.67051 15.1125C8.14201 15.1125 8.53301 15.5375 8.53301 16.05C8.53301 17.1375 9.29204 18.025 10.2235 18.025H10.6375V13.8L8.901 13.125C8.00401 12.7875 6.79652 12.0625 6.79652 9.82496C6.79652 7.89997 8.18801 6.34998 9.89003 6.34998H10.6375V5.62499C10.6375 5.11249 11.0285 4.68749 11.5 4.68749C11.9715 4.68749 12.3625 5.11249 12.3625 5.62499V6.34998H12.7765C14.6625 6.34998 16.192 8.07497 16.192 10.2C16.192 10.7125 15.801 11.1375 15.3295 11.1375C14.858 11.1375 14.467 10.7125 14.467 10.2C14.467 9.11246 13.708 8.22497 12.7765 8.22497H12.3625V12.45L14.099 13.125Z" fill="#FFA800"/>
<path d="M8.53516 9.83685C8.53516 10.9243 8.89164 11.1368 9.47817 11.3618L10.6397 11.7993V8.22437H9.89217C9.14465 8.22437 8.53516 8.94936 8.53516 9.83685Z" fill="#FFA800"/>
</svg>
