<svg width="18" height="17" viewBox="0 0 24 22" fill="none" xmlns="http://www.w3.org/2000/svg">
<g id="&#240;&#159;&#166;&#134; icon &#34;cards&#34;">
<g id="Group">
<path id="Vector" d="M15.8627 4.05981H4.53564C4.19966 4.05981 3.88769 4.07188 3.59971 4.08396C0.75594 4.25294 0 5.30307 0 8.56212V9.26221C0 9.92608 0.539957 10.4693 1.1999 10.4693H19.1985C19.8584 10.4693 20.3984 9.92608 20.3984 9.26221V8.56212C20.3984 4.9651 19.4864 4.05981 15.8627 4.05981Z" fill="#002B5C"/>
<path id="Vector_2" d="M1.1999 12.2781C0.539957 12.2781 0 12.8212 0 13.4851V16.9976C0 20.5946 0.911927 21.4999 4.53564 21.4999H15.8627C19.4264 21.4999 20.3624 20.6308 20.3984 17.1908V13.4851C20.3984 12.8212 19.8584 12.2781 19.1985 12.2781H1.1999ZM5.95152 18.5547H3.89969C3.40773 18.5547 2.99976 18.1443 2.99976 17.6494C2.99976 17.1545 3.40773 16.7441 3.89969 16.7441H5.96352C6.45548 16.7441 6.86345 17.1545 6.86345 17.6494C6.86345 18.1443 6.45548 18.5547 5.95152 18.5547ZM12.659 18.5547H8.53132C8.03936 18.5547 7.63139 18.1443 7.63139 17.6494C7.63139 17.1545 8.03936 16.7441 8.53132 16.7441H12.659C13.1509 16.7441 13.5589 17.1545 13.5589 17.6494C13.5589 18.1443 13.1629 18.5547 12.659 18.5547Z" fill="#002B5C"/>
<path id="Vector_3" d="M24.0002 12.2446V5.91964C24.0002 2.14158 21.8524 0.5 18.6126 0.5H7.89747C6.98554 0.5 6.16961 0.632775 5.44966 0.910396C4.88571 1.11559 4.38175 1.41735 3.97378 1.81568C3.7578 2.02088 3.92579 2.35885 4.23776 2.35885H17.2808C19.9805 2.35885 22.1644 4.55568 22.1644 7.27153V15.9261C22.1644 16.2279 22.4883 16.3969 22.7043 16.1796C23.5323 15.2984 24.0002 14.0069 24.0002 12.2446Z" fill="#002B5C"/>
</g>
</g>
</svg>
