<svg width="17" height="18" viewBox="0 0 22 26" fill="none" xmlns="http://www.w3.org/2000/svg">
<g id="&#240;&#159;&#166;&#134; icon &#34;task&#34;">
<g id="Group">
<path id="Vector" d="M20.9773 23.8975H9.66533C9.1041 23.8975 8.64264 23.3421 8.64264 22.6668C8.64264 21.9914 9.1041 21.436 9.66533 21.436H20.9773C21.5385 21.436 22 21.9914 22 22.6668C22 23.3572 21.5385 23.8975 20.9773 23.8975Z" fill="#002B5C"/>
<path id="Vector_2" d="M20.9773 14.4524H9.66533C9.1041 14.4524 8.64264 13.8971 8.64264 13.2217C8.64264 12.5463 9.1041 11.991 9.66533 11.991H20.9773C21.5385 11.991 22 12.5463 22 13.2217C22 13.8971 21.5385 14.4524 20.9773 14.4524Z" fill="#002B5C"/>
<path id="Vector_3" d="M20.9773 5.00172H9.66533C9.1041 5.00172 8.64264 4.4464 8.64264 3.771C8.64264 3.09561 9.1041 2.54028 9.66533 2.54028H20.9773C21.5385 2.54028 22 3.09561 22 3.771C22 4.4464 21.5385 5.00172 20.9773 5.00172Z" fill="#002B5C"/>
<path id="Vector_4" d="M2.15763 7.04382C1.88325 7.04382 1.62134 6.90874 1.43426 6.68361L0.299325 5.31782C-0.0997749 4.83754 -0.0997749 4.05707 0.299325 3.57679C0.698424 3.09651 1.34696 3.09651 1.74606 3.57679L2.15763 4.07209L4.82661 0.860199C5.22571 0.379934 5.87425 0.379934 6.27335 0.860199C6.67245 1.3405 6.67245 2.12095 6.27335 2.60123L2.881 6.68361C2.68145 6.90874 2.43201 7.04382 2.15763 7.04382Z" fill="#002B5C"/>
<path id="Vector_5" d="M2.15763 16.4947C1.89572 16.4947 1.63381 16.3746 1.43426 16.1345L0.299325 14.7688C-0.0997749 14.2886 -0.0997749 13.5081 0.299325 13.0278C0.698424 12.5475 1.34696 12.5475 1.74606 13.0278L2.15763 13.5231L4.82661 10.3111C5.22571 9.83088 5.87425 9.83088 6.27335 10.3111C6.67245 10.7915 6.67245 11.5718 6.27335 12.0521L2.881 16.1345C2.68145 16.3746 2.41954 16.4947 2.15763 16.4947Z" fill="#002B5C"/>
<path id="Vector_6" d="M2.15763 25.5002C1.89572 25.5002 1.63381 25.3801 1.43426 25.14L0.299325 23.7742C-0.0997749 23.2939 -0.0997749 22.5134 0.299325 22.0331C0.698424 21.5529 1.34696 21.5529 1.74606 22.0331L2.15763 22.5284L4.82661 19.3164C5.22571 18.8363 5.87425 18.8363 6.27335 19.3164C6.67245 19.7968 6.67245 20.5773 6.27335 21.0576L2.881 25.14C2.68145 25.3801 2.41954 25.5002 2.15763 25.5002Z" fill="#002B5C"/>
</g>
</g>
</svg>
