<svg width="18" height="19" viewBox="0 0 23 26" fill="none" xmlns="http://www.w3.org/2000/svg">
<g id="&#240;&#159;&#166;&#134; icon &#34;money send&#34;">
<g id="Group">
<path id="Vector" d="M9.14453 11.0784C9.14453 11.729 9.3108 11.8254 9.68766 11.97L10.253 12.1869V10.1387H9.92043C9.49923 10.1387 9.14453 10.5604 9.14453 11.0784Z" fill="#FFA800"/>
<path id="Vector_2" d="M11.9155 16.766H12.2481C12.6803 16.766 13.024 16.3443 13.024 15.8262C13.024 15.1756 12.8577 15.0792 12.4808 14.9346L11.9155 14.7178V16.766Z" fill="#FFA800"/>
<path id="Vector_3" d="M19.4863 5.59634L17.214 8.06622C17.0477 8.24694 16.8371 8.33128 16.6265 8.33128C16.4159 8.33128 16.2053 8.24694 16.039 8.06622C15.7176 7.71682 15.7176 7.1385 16.039 6.78911L18.3113 4.31923C16.3605 2.512 13.8443 1.40356 11.0843 1.40356C4.96578 1.40356 0 6.80116 0 13.4518C0 20.1024 4.96578 25.5 11.0843 25.5C17.2029 25.5 22.1687 20.1024 22.1687 13.4518C22.1687 10.4518 21.1489 7.71682 19.4863 5.59634ZM13.0241 13.2349C13.7335 13.512 14.6867 14.0662 14.6867 15.8373C14.6867 17.3433 13.5894 18.5843 12.2482 18.5843H11.9157V18.8855C11.9157 19.3795 11.5388 19.7891 11.0843 19.7891C10.6299 19.7891 10.253 19.3795 10.253 18.8855V18.5843H10.1643C8.69012 18.5843 7.48193 17.2349 7.48193 15.5722C7.48193 15.0662 7.8588 14.6566 8.31325 14.6566C8.76771 14.6566 9.14458 15.0662 9.14458 15.5602C9.14458 16.2228 9.59904 16.765 10.1643 16.765H10.253V14.0903L9.14458 13.6686C8.43518 13.3915 7.48193 12.8373 7.48193 11.0662C7.48193 9.56019 8.57928 8.31923 9.92048 8.31923H10.253V8.03007C10.253 7.53609 10.6299 7.12646 11.0843 7.12646C11.5388 7.12646 11.9157 7.53609 11.9157 8.03007V8.33128H12.0043C13.4786 8.33128 14.6867 9.68067 14.6867 11.3433C14.6867 11.8373 14.3099 12.2469 13.8554 12.2469C13.401 12.2469 13.0241 11.8373 13.0241 11.3433C13.0241 10.6807 12.5696 10.1385 12.0043 10.1385H11.9157V12.8132L13.0241 13.2349Z" fill="#FFA800"/>
<path id="Vector_4" d="M22.9337 1.05422C22.845 0.837349 22.6898 0.656626 22.4792 0.560241C22.3795 0.524096 22.2797 0.5 22.1689 0.5H17.7351C17.2807 0.5 16.9038 0.909639 16.9038 1.40361C16.9038 1.89759 17.2807 2.30723 17.7351 2.30723H20.1626L18.3115 4.31928C18.7327 4.71687 19.1207 5.13855 19.4865 5.59639L21.3375 3.58434V6.22289C21.3375 6.71687 21.7144 7.12651 22.1689 7.12651C22.6233 7.12651 23.0002 6.71687 23.0002 6.22289V1.40361C23.0002 1.28313 22.978 1.1747 22.9337 1.05422Z" fill="#FFA800"/>
</g>
</g>
</svg>
