<svg width="17" height="18" viewBox="0 0 21 24" fill="none" xmlns="http://www.w3.org/2000/svg">
<g id="&#240;&#159;&#166;&#134; icon &#34;task square&#34;">
<path id="Vector" d="M14.8995 0.25H6.1005C2.2785 0.25 0 2.79975 0 7.07675V16.9233C0 21.2003 2.2785 23.75 6.1005 23.75H14.8995C18.7215 23.75 21 21.2003 21 16.9233V7.07675C21 2.79975 18.7215 0.25 14.8995 0.25ZM8.3685 15.4075L6.006 18.0512C5.8485 18.2275 5.649 18.3097 5.4495 18.3097C5.25 18.3097 5.04 18.2275 4.893 18.0512L4.1055 17.17C3.7905 16.8292 3.7905 16.2652 4.1055 15.9245C4.41 15.5837 4.9035 15.5837 5.2185 15.9245L5.4495 16.183L7.2555 14.162C7.56 13.8212 8.0535 13.8212 8.3685 14.162C8.673 14.5027 8.673 15.0667 8.3685 15.4075ZM8.3685 7.1825L6.006 9.82625C5.8485 10.0025 5.649 10.0847 5.4495 10.0847C5.25 10.0847 5.04 10.0025 4.893 9.82625L4.1055 8.945C3.7905 8.60425 3.7905 8.04025 4.1055 7.6995C4.41 7.35875 4.9035 7.35875 5.2185 7.6995L5.4495 7.958L7.2555 5.937C7.56 5.59625 8.0535 5.59625 8.3685 5.937C8.673 6.27775 8.673 6.84175 8.3685 7.1825ZM16.338 17.4285H10.8255C10.395 17.4285 10.038 17.029 10.038 16.5472C10.038 16.0655 10.395 15.666 10.8255 15.666H16.338C16.779 15.666 17.1255 16.0655 17.1255 16.5472C17.1255 17.029 16.779 17.4285 16.338 17.4285ZM16.338 9.2035H10.8255C10.395 9.2035 10.038 8.804 10.038 8.32225C10.038 7.8405 10.395 7.441 10.8255 7.441H16.338C16.779 7.441 17.1255 7.8405 17.1255 8.32225C17.1255 8.804 16.779 9.2035 16.338 9.2035Z" fill="#FFA800"/>
</g>
</svg>
