<svg width="17" height="18" viewBox="0 0 22 25" fill="none" xmlns="http://www.w3.org/2000/svg">
<path opacity="0.4" d="M17.1128 7.04607C17.0356 7.03386 16.9585 7.03386 16.8814 7.04607C15.174 6.98501 13.8191 5.43415 13.8191 3.52914C13.8191 1.5875 15.2401 0 17.0026 0C18.7541 0 20.1861 1.57529 20.1861 3.52914C20.1751 5.43415 18.8202 6.98501 17.1128 7.04607Z" fill="#002B5C"/>
<path opacity="0.4" d="M20.7042 15.5086C19.4704 16.4244 17.741 16.7664 16.1437 16.5343C16.5623 15.533 16.7826 14.4217 16.7936 13.2494C16.7936 12.0283 16.5513 10.8682 16.0886 9.85462C17.7189 9.61041 19.4484 9.95232 20.6931 10.8682C22.4336 12.1382 22.4336 14.2264 20.7042 15.5086Z" fill="#002B5C"/>
<path opacity="0.4" d="M4.89781 7.04607C4.97492 7.03386 5.05203 7.03386 5.12914 7.04607C6.83655 6.98501 8.19147 5.43415 8.19147 3.52914C8.19147 1.5875 6.77046 0 5.00797 0C3.25649 0 1.82446 1.57529 1.82446 3.52914C1.83548 5.43415 3.1904 6.98501 4.89781 7.04607Z" fill="#002B5C"/>
<path opacity="0.4" d="M5.0176 13.2497C5.0176 14.4342 5.24892 15.5577 5.66752 16.5712C4.11432 16.7544 2.49503 16.388 1.30535 15.521C-0.435115 14.2388 -0.435115 12.1506 1.30535 10.8684C2.48401 9.98919 4.14737 9.63505 5.71158 9.83044C5.25994 10.8562 5.0176 12.0163 5.0176 13.2497Z" fill="#002B5C"/>
<path d="M11.1552 16.9376C11.0671 16.9254 10.968 16.9254 10.8688 16.9376C8.84197 16.8643 7.22266 15.0203 7.22266 12.749C7.22266 10.4288 8.90806 8.54822 11.012 8.54822C13.105 8.54822 14.8014 10.4288 14.8014 12.749C14.8014 15.0203 13.1931 16.8643 11.1552 16.9376Z" fill="#002B5C"/>
<path d="M7.57515 19.4652C5.9118 20.6986 5.9118 22.7257 7.57515 23.9469C9.46985 25.3512 12.5762 25.3512 14.4709 23.9469C16.1343 22.7135 16.1343 20.6864 14.4709 19.4652C12.5873 18.0609 9.48087 18.0609 7.57515 19.4652Z" fill="#002B5C"/>
</svg>
