<svg width="17" height="18" viewBox="0 0 22 24" fill="none" xmlns="http://www.w3.org/2000/svg">
<g id="&#240;&#159;&#166;&#134; icon &#34;profile circle&#34;">
<g id="Group">
<path id="Vector" opacity="0.4" d="M11 23.625C17.0751 23.625 22 18.4204 22 12C22 5.57969 17.0751 0.375 11 0.375C4.92487 0.375 0 5.57969 0 12C0 18.4204 4.92487 23.625 11 23.625Z" fill="#FFA800"/>
<path id="Vector_2" d="M11 6.1062C8.723 6.1062 6.875 8.0592 6.875 10.4655C6.875 12.8254 8.624 14.7435 10.945 14.8133H11.044H11.121H11.143C13.365 14.7319 15.114 12.8254 15.125 10.4655C15.125 8.0592 13.277 6.1062 11 6.1062Z" fill="#FFA800"/>
<path id="Vector_3" d="M18.4588 20.5442C16.5008 22.4507 13.8828 23.6249 11.0008 23.6249C8.11879 23.6249 5.50079 22.4507 3.54279 20.5442C3.80679 19.4864 4.52179 18.5215 5.56679 17.7775C8.56979 15.6617 13.4538 15.6617 16.4348 17.7775C17.4908 18.5215 18.1948 19.4864 18.4588 20.5442Z" fill="#FFA800"/>
</g>
</g>
</svg>
