<svg width="21" height="21" viewBox="0 0 21 21" fill="none" xmlns="http://www.w3.org/2000/svg">
<g id="invisible 1" clip-path="url(#clip0_127_139)">
<g id="Group">
<g id="Group_2">
<g id="Group_3">
<path id="Vector" d="M10.3401 7.17414L13.3462 10.1803L13.3605 10.0228C13.3605 8.44338 12.077 7.15982 10.4976 7.15982L10.3401 7.17414Z" fill="black"/>
<path id="Vector_2" d="M10.4976 5.2512C13.1316 5.2512 15.2693 7.38891 15.2693 10.0229C15.2693 10.6384 15.1453 11.2253 14.9305 11.7645L17.7219 14.5559C19.163 13.3535 20.2986 11.7979 21.0001 10.0229C19.3443 5.83337 15.2741 2.86539 10.4977 2.86539C9.16161 2.86539 7.88284 3.10396 6.6947 3.53341L8.75605 5.58997C9.29519 5.38004 9.8821 5.2512 10.4976 5.2512Z" fill="black"/>
<path id="Vector_3" d="M0.954313 2.65064L3.13018 4.82651L3.56442 5.26074C1.98977 6.49182 0.744376 8.12851 0 10.0228C1.651 14.2123 5.72597 17.1803 10.4976 17.1803C11.9769 17.1803 13.3892 16.894 14.6824 16.3739L15.088 16.7795L17.8699 19.5661L19.0866 18.3541L2.17108 1.43387L0.954313 2.65064ZM6.23178 7.92332L7.70622 9.39776C7.66327 9.60295 7.63464 9.8081 7.63464 10.0228C7.63464 11.6023 8.9182 12.8858 10.4976 12.8858C10.7124 12.8858 10.9175 12.8572 11.118 12.8142L12.5924 14.2887C11.9577 14.6036 11.2516 14.7945 10.4976 14.7945C7.86368 14.7945 5.72597 12.6568 5.72597 10.0228C5.72597 9.26892 5.91685 8.5627 6.23178 7.92332Z" fill="black"/>
</g>
</g>
</g>
</g>
<defs>
<clipPath id="clip0_127_139">
<rect width="21" height="21" fill="white"/>
</clipPath>
</defs>
</svg>
