<svg width="25" height="25" viewBox="0 0 57 57" fill="none" xmlns="http://www.w3.org/2000/svg">
<path d="M28.1998 0C12.6617 0 0 12.6617 0 28.1998C0 43.7379 12.6617 56.3997 28.1998 56.3997C43.7379 56.3997 56.3997 43.7379 56.3997 28.1998C56.3997 12.6617 43.7379 0 28.1998 0ZM37.675 34.6858C38.4928 35.5036 38.4928 36.8572 37.675 37.675C37.252 38.098 36.7162 38.2954 36.1804 38.2954C35.6446 38.2954 35.1088 38.098 34.6858 37.675L28.1998 31.189L21.7139 37.675C21.2909 38.098 20.7551 38.2954 20.2193 38.2954C19.6835 38.2954 19.1477 38.098 18.7247 37.675C17.9069 36.8572 17.9069 35.5036 18.7247 34.6858L25.2106 28.1998L18.7247 21.7139C17.9069 20.8961 17.9069 19.5425 18.7247 18.7247C19.5425 17.9069 20.8961 17.9069 21.7139 18.7247L28.1998 25.2106L34.6858 18.7247C35.5036 17.9069 36.8572 17.9069 37.675 18.7247C38.4928 19.5425 38.4928 20.8961 37.675 21.7139L31.189 28.1998L37.675 34.6858Z" fill="black"/>
</svg>
