<svg width="21" height="20" viewBox="0 0 136 123" fill="none" xmlns="http://www.w3.org/2000/svg">
<path d="M124.97 31.3595L105.659 108.89C104.283 114.678 99.1262 118.689 93.1667 118.689H17.8709C9.21823 118.689 3.02961 110.207 5.60822 101.899L29.7326 24.4261C31.3944 19.0396 36.3798 15.3145 41.9955 15.3145H112.478C117.921 15.3145 122.448 18.6381 124.339 23.2223C125.428 25.6863 125.657 28.4944 124.97 31.3595Z" stroke="#FFA800" stroke-width="8.59541" stroke-miterlimit="10"/>
<path d="M90.9883 118.689H118.379C125.771 118.689 131.559 112.443 131.043 105.051L125.37 27.0044" stroke="#FFA800" stroke-width="8.59541" stroke-miterlimit="10" stroke-linecap="round" stroke-linejoin="round"/>
<path d="M54.7739 29.1819L60.7335 4.42749" stroke="#FFA800" stroke-width="8.59541" stroke-miterlimit="10" stroke-linecap="round" stroke-linejoin="round"/>
<path d="M93.168 29.2393L98.5544 4.37012" stroke="#FFA800" stroke-width="8.59541" stroke-miterlimit="10" stroke-linecap="round" stroke-linejoin="round"/>
<path d="M43.4282 61.386H89.2704" stroke="#FFA800" stroke-width="8.59541" stroke-miterlimit="10" stroke-linecap="round" stroke-linejoin="round"/>
<path d="M37.6982 84.3071H83.5404" stroke="#FFA800" stroke-width="8.59541" stroke-miterlimit="10" stroke-linecap="round" stroke-linejoin="round"/>
</svg>
