<svg width="25" height="25" viewBox="0 0 57 57" fill="none" xmlns="http://www.w3.org/2000/svg">
<path d="M28.1998 0C12.6617 0 0 12.6617 0 28.1998C0 43.7379 12.6617 56.3997 28.1998 56.3997C43.7379 56.3997 56.3997 43.7379 56.3997 28.1998C56.3997 12.6617 43.7379 0 28.1998 0ZM41.6793 21.7139L25.69 37.7032C25.2952 38.098 24.7594 38.3236 24.1954 38.3236C23.6315 38.3236 23.0957 38.098 22.7009 37.7032L14.7203 29.7226C13.9025 28.9048 13.9025 27.5512 14.7203 26.7334C15.5381 25.9156 16.8917 25.9156 17.7095 26.7334L24.1954 33.2194L38.6902 18.7247C39.508 17.9069 40.8615 17.9069 41.6793 18.7247C42.4971 19.5425 42.4971 20.8679 41.6793 21.7139Z" fill="black"/>
</svg>
