<svg width="17" height="18" viewBox="0 0 22 25" fill="none" xmlns="http://www.w3.org/2000/svg">
<path opacity="0.4" d="M17.1127 7.04607C17.0356 7.03386 16.9585 7.03386 16.8814 7.04607C15.1739 6.98501 13.819 5.43414 13.819 3.52914C13.819 1.5875 15.24 0 17.0025 0C18.754 0 20.186 1.57529 20.186 3.52914C20.175 5.43414 18.8201 6.98501 17.1127 7.04607Z" fill="#FFA800"/>
<path opacity="0.4" d="M20.7042 15.5086C19.4704 16.4244 17.741 16.7664 16.1437 16.5343C16.5623 15.533 16.7826 14.4217 16.7936 13.2494C16.7936 12.0283 16.5513 10.8682 16.0886 9.85462C17.7189 9.61041 19.4484 9.95232 20.6931 10.8682C22.4336 12.1382 22.4336 14.2264 20.7042 15.5086Z" fill="#FFA800"/>
<path opacity="0.4" d="M4.89787 7.04607C4.97498 7.03386 5.05209 7.03386 5.1292 7.04607C6.83661 6.98501 8.19153 5.43414 8.19153 3.52914C8.19153 1.5875 6.77052 0 5.00803 0C3.25655 0 1.82452 1.57529 1.82452 3.52914C1.83554 5.43414 3.19046 6.98501 4.89787 7.04607Z" fill="#FFA800"/>
<path opacity="0.4" d="M5.0176 13.2497C5.0176 14.4342 5.24892 15.5577 5.66752 16.5712C4.11432 16.7544 2.49503 16.388 1.30535 15.521C-0.435115 14.2388 -0.435115 12.1506 1.30535 10.8684C2.48401 9.98919 4.14737 9.63505 5.71158 9.83044C5.25994 10.8562 5.0176 12.0163 5.0176 13.2497Z" fill="#FFA800"/>
<path d="M11.1552 16.9376C11.0671 16.9254 10.968 16.9254 10.8688 16.9376C8.84197 16.8643 7.22266 15.0203 7.22266 12.749C7.22266 10.4288 8.90806 8.54822 11.012 8.54822C13.105 8.54822 14.8014 10.4288 14.8014 12.749C14.8014 15.0203 13.1931 16.8643 11.1552 16.9376Z" fill="#FFA800"/>
<path d="M7.57515 19.4652C5.9118 20.6986 5.9118 22.7257 7.57515 23.9469C9.46985 25.3512 12.5762 25.3512 14.4709 23.9469C16.1343 22.7135 16.1343 20.6864 14.4709 19.4652C12.5873 18.0609 9.48087 18.0609 7.57515 19.4652Z" fill="#FFA800"/>
</svg>
