<svg width="17" height="18" viewBox="0 0 23 25" fill="none" xmlns="http://www.w3.org/2000/svg">
<path d="M6.36817 5.23256C5.91409 5.23256 5.53754 4.83721 5.53754 4.36047V0.872093C5.53754 0.395349 5.91409 0 6.36817 0C6.82225 0 7.1988 0.395349 7.1988 0.872093V4.36047C7.1988 4.83721 6.82225 5.23256 6.36817 5.23256Z" fill="#FFA800"/>
<path d="M15.2283 5.23256C14.7742 5.23256 14.3976 4.83721 14.3976 4.36047V0.872093C14.3976 0.395349 14.7742 0 15.2283 0C15.6824 0 16.0589 0.395349 16.0589 0.872093V4.36047C16.0589 4.83721 15.6824 5.23256 15.2283 5.23256Z" fill="#FFA800"/>
<path d="M17.6649 24.3023C15.2506 24.3023 13.2903 22.2441 13.2903 19.7092C13.2903 17.1744 15.2506 15.1162 17.6649 15.1162C20.0793 15.1162 22.0396 17.1744 22.0396 19.7092C22.0396 22.2441 20.0793 24.3023 17.6649 24.3023ZM17.6649 16.8604C16.1698 16.8604 14.9515 18.1395 14.9515 19.7092C14.9515 21.279 16.1698 22.5581 17.6649 22.5581C19.1601 22.5581 20.3783 21.279 20.3783 19.7092C20.3783 18.1395 19.1601 16.8604 17.6649 16.8604Z" fill="#FFA800"/>
<path d="M21.8726 24.9999C21.6622 24.9999 21.4518 24.9185 21.2856 24.7441L20.1781 23.5813C19.857 23.2441 19.857 22.6859 20.1781 22.3487C20.4993 22.0115 21.0309 22.0115 21.3521 22.3487L22.4596 23.5115C22.7808 23.8487 22.7808 24.4069 22.4596 24.7441C22.2935 24.9185 22.0831 24.9999 21.8726 24.9999Z" fill="#FFA800"/>
<path d="M6.92196 15.4068C6.77799 15.4068 6.63401 15.3719 6.50111 15.3138C6.35713 15.2556 6.2353 15.1743 6.13562 15.0696C6.09132 15.0115 6.03595 14.9533 6.00273 14.8952C5.95843 14.8254 5.9252 14.7556 5.90305 14.6859C5.86983 14.6161 5.84768 14.5463 5.8366 14.4766C5.82553 14.3952 5.81445 14.3138 5.81445 14.244C5.81445 13.9417 5.93627 13.6394 6.13562 13.4184C6.2353 13.3138 6.35713 13.2324 6.50111 13.1743C6.89981 12.9882 7.3982 13.0929 7.7083 13.4184C7.90765 13.6394 8.02947 13.9417 8.02947 14.244C8.02947 14.3138 8.01839 14.3952 8.00732 14.4766C7.99624 14.5463 7.97409 14.6161 7.94087 14.6859C7.91872 14.7556 7.88549 14.8254 7.84119 14.8952C7.79689 14.9533 7.7526 15.0115 7.7083 15.0696C7.49788 15.2789 7.20991 15.4068 6.92196 15.4068Z" fill="#FFA800"/>
<path d="M10.7982 15.4069C10.5102 15.4069 10.2223 15.279 10.0119 15.0697C9.8125 14.8487 9.69067 14.558 9.69067 14.2441C9.69067 14.0929 9.7239 13.9418 9.77927 13.8022C9.83465 13.6627 9.91218 13.5349 10.0119 13.4186C10.4216 12.9884 11.1637 12.9884 11.5845 13.4186C11.7839 13.6396 11.9057 13.9418 11.9057 14.2441C11.9057 14.3139 11.8946 14.3954 11.8835 14.4768C11.8725 14.5465 11.8503 14.6162 11.8171 14.6859C11.7949 14.7557 11.7617 14.8255 11.7174 14.8953C11.6731 14.9534 11.6288 15.0115 11.5845 15.0697C11.3741 15.279 11.0861 15.4069 10.7982 15.4069Z" fill="#FFA800"/>
<path d="M6.92196 19.4766C6.63401 19.4766 6.34605 19.3487 6.13562 19.1394C5.93627 18.9184 5.81445 18.6161 5.81445 18.3138C5.81445 18.1626 5.84768 18.0115 5.90305 17.8719C5.95843 17.7208 6.03594 17.593 6.13562 17.4883C6.5454 17.0581 7.29852 17.0581 7.7083 17.4883C7.90765 17.7093 8.02947 18.0115 8.02947 18.3138C8.02947 18.6161 7.90765 18.9184 7.7083 19.1394C7.49788 19.3487 7.20991 19.4766 6.92196 19.4766Z" fill="#FFA800"/>
<path d="M20.212 9.9882H1.38434C0.930264 9.9882 0.553711 9.59286 0.553711 9.11611C0.553711 8.63937 0.930264 8.24402 1.38434 8.24402H20.212C20.6661 8.24402 21.0426 8.63937 21.0426 9.11611C21.0426 9.59286 20.6661 9.9882 20.212 9.9882Z" fill="#FFA800"/>
<path d="M12.3155 25H6.36817C2.32577 25 0 22.5581 0 18.3139V8.43019C0 4.186 2.32577 1.74414 6.36817 1.74414H15.2282C19.2706 1.74414 21.5964 4.186 21.5964 8.43019V13.6627C21.5964 14.1395 21.2199 14.5348 20.7658 14.5348C20.3117 14.5348 19.9352 14.1395 19.9352 13.6627V8.43019C19.9352 5.10461 18.3957 3.48833 15.2282 3.48833H6.36817C3.2007 3.48833 1.66126 5.10461 1.66126 8.43019V18.3139C1.66126 21.6395 3.2007 23.2558 6.36817 23.2558H12.3155C12.7696 23.2558 13.1461 23.6511 13.1461 24.1279C13.1461 24.6046 12.7696 25 12.3155 25Z" fill="#FFA800"/>
</svg>
