<svg width="20" height="20" viewBox="0 0 236 237" fill="none" xmlns="http://www.w3.org/2000/svg">
<path d="M155.115 236.206H153.62C102.561 236.206 77.9518 216.081 73.6968 171.002C73.2369 166.287 76.6868 162.032 81.5167 161.572C86.1166 161.112 90.4865 164.677 90.9465 169.392C94.2815 205.502 111.301 218.956 153.735 218.956H155.23C202.035 218.956 218.594 202.397 218.594 155.592V80.6136C218.594 33.8094 202.035 17.2497 155.23 17.2497H153.735C111.071 17.2497 94.0515 30.9344 90.9465 67.7338C90.3716 72.4487 86.3466 76.0136 81.5167 75.5536C76.6868 75.2087 73.2369 70.9537 73.5819 66.2388C77.4918 20.4696 102.216 0 153.62 0H155.115C211.579 0 235.729 24.1496 235.729 80.6136V155.592C235.729 212.056 211.579 236.206 155.115 236.206Z" fill="#FFA800"/>
<path d="M152.34 126.728H21.4725C16.7576 126.728 12.8477 122.818 12.8477 118.103C12.8477 113.388 16.7576 109.478 21.4725 109.478H152.34C157.055 109.478 160.965 113.388 160.965 118.103C160.965 122.818 157.055 126.728 152.34 126.728Z" fill="#FFA800"/>
<path d="M47.1204 165.253C44.9354 165.253 42.7505 164.448 41.0255 162.723L2.50121 124.199C-0.833735 120.864 -0.833735 115.344 2.50121 112.009L41.0255 73.4848C44.3605 70.1499 49.8804 70.1499 53.2153 73.4848C56.5502 76.8198 56.5502 82.3397 53.2153 85.6746L20.7859 118.104L53.2153 150.534C56.5502 153.869 56.5502 159.388 53.2153 162.723C51.6053 164.448 49.3054 165.253 47.1204 165.253Z" fill="#FFA800"/>
</svg>
