<svg width="17" height="18" viewBox="0 0 24 26" fill="none" xmlns="http://www.w3.org/2000/svg">
<path d="M10.2857 0C8.4 0 6.85714 1.43036 6.85714 3.17857H3.42857C1.54286 3.17857 0 4.60893 0 6.35714H24C24 4.60893 22.4571 3.17857 20.5714 3.17857H17.1429C17.1429 1.43036 15.6 0 13.7143 0H10.2857ZM3.42857 9.53571V24.8246C3.42857 25.1743 3.70286 25.4286 4.08 25.4286H19.9543C20.3314 25.4286 20.6057 25.1743 20.6057 24.8246V9.53571H17.1771V20.6607C17.1771 21.5507 16.4229 22.25 15.4629 22.25C14.5029 22.25 13.7486 21.5507 13.7486 20.6607V9.53571H10.32V20.6607C10.32 21.5507 9.56571 22.25 8.60571 22.25C7.64571 22.25 6.89143 21.5507 6.89143 20.6607V9.53571H3.46286H3.42857Z" fill="black"/>
</svg>
