<svg width="20" height="19" viewBox="0 0 57 56" fill="none" xmlns="http://www.w3.org/2000/svg">
<path d="M54.3205 55.4306H3.0373C1.90075 55.4306 0.958252 54.4881 0.958252 53.3515C0.958252 52.215 1.90075 51.2725 3.0373 51.2725H54.3205C55.4571 51.2725 56.3996 52.215 56.3996 53.3515C56.3996 54.4881 55.4571 55.4306 54.3205 55.4306Z" fill="black"/>
<path opacity="0.4" d="M52.4936 32.4229L32.4516 52.4649C28.5152 56.4012 22.1671 56.4012 18.2585 52.4926L5.47925 39.7134L39.7421 5.45068L52.5213 18.2299C56.43 22.1385 56.43 28.4865 52.4936 32.4229Z" fill="black"/>
<path d="M39.7412 5.45059L5.45059 39.7134L2.928 37.1909C-0.980609 33.2822 -0.980609 26.9342 2.95573 22.9979L22.9978 2.95573C26.9342 -0.980609 33.2823 -0.980609 37.1906 2.928L39.7412 5.45059Z" fill="black"/>
<path d="M31.1469 43.233L27.4046 46.9753C26.6284 47.7515 25.381 47.7515 24.6048 46.9753C23.8287 46.1991 23.8287 44.9517 24.6048 44.1755L28.3471 40.4332C29.1233 39.657 30.3707 39.657 31.1469 40.4332C31.9231 41.2094 31.9231 42.4568 31.1469 43.233Z" fill="black"/>
<path d="M43.286 31.0919L35.8292 38.5487C35.053 39.3249 33.8056 39.3249 33.0294 38.5487C32.2532 37.7726 32.2532 36.5251 33.0294 35.749L40.4863 28.2921C41.2624 27.5159 42.5099 27.5159 43.286 28.2921C44.0345 29.0683 44.0345 30.3157 43.286 31.0919Z" fill="black"/>
</svg>
